<?xml version="1.0" encoding="utf-8"?>
<!-- Generator: Adobe Illustrator 16.0.0, SVG Export Plug-In . SVG Version: 6.00 Build 0)  -->
<!DOCTYPE svg PUBLIC "-//W3C//DTD SVG 1.1//EN" "http://www.w3.org/Graphics/SVG/1.1/DTD/svg11.dtd">
<svg version="1.1" id="Layer_1" xmlns="http://www.w3.org/2000/svg" xmlns:xlink="http://www.w3.org/1999/xlink" x="0px" y="0px"
	 width="32px" height="32px" viewBox="0 0 32 32" enable-background="new 0 0 32 32" xml:space="preserve">
<g>
	<path d="M31.835,3.148c-0.119-0.134-0.288-0.213-0.466-0.218L11.337,2.344c-0.364-0.027-0.645,0.258-0.668,0.607
		c-0.007,0.11-0.763,11.032-3.505,16.918c-0.152,0.325-0.011,0.713,0.315,0.864c0.325,0.152,0.712,0.012,0.864-0.314
		c2.49-5.343,3.374-14.299,3.576-16.756l18.721,0.548c-1.03,11.306-3.589,23.482-6.88,24.083c-1.322,0.242-3.042-1.677-4.831-5.404
		c-0.105-0.221-0.327-0.363-0.572-0.369L0.666,22.113c-0.192-0.005-0.389,0.082-0.516,0.235c-0.127,0.153-0.177,0.356-0.135,0.551
		c0.056,0.262,1.43,6.403,6.4,6.521c5.789,0.137,16.976,0.235,17.088,0.236c0.001,0,0.004,0,0.005,0
		c0.088,0,0.172-0.018,0.249-0.049c0.08-0.008,0.159-0.019,0.239-0.033c5.438-0.994,7.498-20.084,8.003-25.938
		C32.013,3.458,31.954,3.282,31.835,3.148z M6.445,28.12c-2.995-0.071-4.41-3.176-4.922-4.686l16.409,0.379
		c1.014,2.055,2.003,3.557,2.979,4.518C17.23,28.293,10.506,28.216,6.445,28.12z"/>
	<path d="M25.618,9.967c0.008,0,0.016,0,0.023,0c0.348,0,0.638-0.276,0.649-0.628c0.013-0.359-0.269-0.66-0.627-0.673l-10.217-0.36
		c-0.364-0.005-0.66,0.269-0.673,0.627s0.269,0.661,0.627,0.673L25.618,9.967z"/>
	<path d="M14.023,13.556c-0.013,0.359,0.269,0.661,0.627,0.673l9.549,0.336c0.008,0,0.016,0,0.023,0c0.35,0,0.638-0.276,0.65-0.628
		c0.013-0.359-0.269-0.66-0.628-0.673l-9.55-0.336C14.326,12.92,14.036,13.197,14.023,13.556z"/>
	<path d="M12.813,18.193c-0.013,0.359,0.269,0.66,0.627,0.673l5.451,0.192c0.008,0.001,0.015,0.001,0.022,0.001
		c0.35,0,0.639-0.276,0.651-0.628c0.013-0.359-0.27-0.66-0.628-0.673l-5.451-0.192C13.123,17.553,12.826,17.835,12.813,18.193z"/>
</g>
</svg>
